<svg width="28" height="28" viewBox="0 0 28 28" fill="none" xmlns="http://www.w3.org/2000/svg">
<path d="M14.3041 5.53874C14.2226 5.46086 14.1143 5.41739 14.0016 5.41739C13.889 5.41739 13.7806 5.46086 13.6992 5.53874L3.63125 15.1566C3.58849 15.1975 3.55447 15.2467 3.53126 15.3011C3.50804 15.3555 3.4961 15.4141 3.49617 15.4733L3.49453 24.5C3.49453 24.9641 3.6789 25.4092 4.00709 25.7374C4.33528 26.0656 4.7804 26.25 5.24453 26.25H10.5C10.7321 26.25 10.9546 26.1578 11.1187 25.9937C11.2828 25.8296 11.375 25.6071 11.375 25.375V17.9375C11.375 17.8215 11.4211 17.7102 11.5031 17.6281C11.5852 17.5461 11.6965 17.5 11.8125 17.5H16.1875C16.3035 17.5 16.4148 17.5461 16.4969 17.6281C16.5789 17.7102 16.625 17.8215 16.625 17.9375V25.375C16.625 25.6071 16.7172 25.8296 16.8813 25.9937C17.0454 26.1578 17.2679 26.25 17.5 26.25H22.7533C23.2174 26.25 23.6625 26.0656 23.9907 25.7374C24.3189 25.4092 24.5033 24.9641 24.5033 24.5V15.4733C24.5033 15.4141 24.4914 15.3555 24.4682 15.3011C24.445 15.2467 24.411 15.1975 24.3682 15.1566L14.3041 5.53874Z" fill="white"/>
<path d="M26.8466 13.352L22.756 9.43852V3.5C22.756 3.26794 22.6638 3.04538 22.4997 2.88128C22.3356 2.71719 22.1131 2.625 21.881 2.625H19.256C19.0239 2.625 18.8014 2.71719 18.6373 2.88128C18.4732 3.04538 18.381 3.26794 18.381 3.5V5.25L15.2135 2.22141C14.9171 1.92172 14.4763 1.75 14 1.75C13.5253 1.75 13.0856 1.92172 12.7892 2.22195L1.15719 13.3509C0.817029 13.679 0.774373 14.2188 1.0839 14.5742C1.16163 14.6639 1.2568 14.7369 1.36363 14.7887C1.47046 14.8405 1.5867 14.87 1.70529 14.8754C1.82387 14.8808 1.94232 14.862 2.05343 14.8202C2.16453 14.7784 2.26597 14.7144 2.35156 14.6322L13.6992 3.78875C13.7806 3.71086 13.889 3.66739 14.0016 3.66739C14.1143 3.66739 14.2226 3.71086 14.3041 3.78875L25.6528 14.6322C25.82 14.7925 26.0439 14.88 26.2755 14.8755C26.5071 14.871 26.7274 14.7748 26.8882 14.6081C27.224 14.2603 27.1961 13.6861 26.8466 13.352Z" fill="white"/>
</svg>
