<svg width="40" height="40" viewBox="0 0 40 40" fill="none" xmlns="http://www.w3.org/2000/svg">
<path d="M36.6667 0H3.33333C2.44928 0 1.60143 0.351189 0.976311 0.976311C0.351189 1.60143 0 2.44928 0 3.33333V36.6667C0 37.5507 0.351189 38.3986 0.976311 39.0237C1.60143 39.6488 2.44928 40 3.33333 40H36.6667C37.5507 40 38.3986 39.6488 39.0237 39.0237C39.6488 38.3986 40 37.5507 40 36.6667V3.33333C40 2.44928 39.6488 1.60143 39.0237 0.976311C38.3986 0.351189 37.5507 0 36.6667 0ZM31.1792 28.8208C31.334 28.9757 31.4568 29.1595 31.5407 29.3618C31.6245 29.5642 31.6676 29.781 31.6676 30C31.6676 30.219 31.6245 30.4358 31.5407 30.6382C31.4568 30.8405 31.334 31.0243 31.1792 31.1792C31.0243 31.334 30.8405 31.4568 30.6382 31.5407C30.4358 31.6245 30.219 31.6676 30 31.6676C29.781 31.6676 29.5642 31.6245 29.3618 31.5407C29.1595 31.4568 28.9757 31.334 28.8208 31.1792L20 22.3562L11.1792 31.1792C10.8664 31.4919 10.4423 31.6676 10 31.6676C9.55773 31.6676 9.13357 31.4919 8.82083 31.1792C8.5081 30.8664 8.33241 30.4423 8.33241 30C8.33241 29.5577 8.5081 29.1336 8.82083 28.8208L17.6438 20L8.82083 11.1792C8.5081 10.8664 8.33241 10.4423 8.33241 10C8.33241 9.55773 8.5081 9.13357 8.82083 8.82083C9.13357 8.5081 9.55773 8.33241 10 8.33241C10.4423 8.33241 10.8664 8.5081 11.1792 8.82083L20 17.6438L28.8208 8.82083C29.1336 8.5081 29.5577 8.33241 30 8.33241C30.4423 8.33241 30.8664 8.5081 31.1792 8.82083C31.4919 9.13357 31.6676 9.55773 31.6676 10C31.6676 10.4423 31.4919 10.8664 31.1792 11.1792L22.3562 20L31.1792 28.8208Z" fill="white"/>
</svg>
