<svg width="28" height="28" viewBox="0 0 28 28" fill="none" xmlns="http://www.w3.org/2000/svg">
<path d="M14.9427 9.61679C14.9427 10.6435 15.211 11.5045 15.7477 12.2033C16.128 12.684 16.6437 13.0001 17.2959 13.1506C17.9375 13.3 18.5442 13.3105 19.0925 13.1833C19.2792 14.2916 18.9759 15.4653 18.2059 16.709C17.4359 17.9515 16.4384 18.8871 15.2215 19.5125L17.066 22.1666C17.9994 21.7046 18.886 21.119 19.7027 20.4108C20.531 19.7026 21.266 18.8883 21.9194 17.9678C22.5727 17.0473 23.0627 16.0078 23.3777 14.8295C23.6927 13.6511 23.7802 12.4495 23.6297 11.2128C23.4337 9.57946 22.9064 8.27279 22.0477 7.30446C21.1902 6.32329 20.1204 5.83329 18.8417 5.83329C17.7159 5.83329 16.7814 6.17163 16.0417 6.85763C15.309 7.52963 14.945 8.45013 14.945 9.62029L14.9427 9.61679ZM4.29804 9.61679C4.29804 10.6435 4.56637 11.5045 5.10304 12.2033C5.48337 12.6933 6.00137 13.0106 6.65121 13.1565C7.30454 13.3011 7.90304 13.3081 8.44787 13.1821C8.63454 14.2788 8.34287 15.4571 7.57054 16.7055C6.80054 17.9421 5.80537 18.8755 4.58854 19.5055L6.42837 22.1666C7.3617 21.7046 8.24254 21.119 9.06504 20.4108C9.90092 19.6921 10.6433 18.8714 11.2747 17.9678C11.9234 17.0461 12.4064 16.0078 12.7214 14.8295C13.0401 13.6518 13.1261 12.4233 12.9745 11.2128C12.7809 9.57946 12.2559 8.27279 11.3995 7.30446C10.5444 6.33146 9.47804 5.84379 8.19937 5.84379C7.0712 5.84379 6.1367 6.18213 5.39704 6.86696C4.66554 7.53896 4.29804 8.45946 4.29804 9.62963V9.61679Z" fill="#FBBF24"/>
</svg>
