<svg width="28" height="28" viewBox="0 0 28 28" fill="none" xmlns="http://www.w3.org/2000/svg">
<path d="M19.8333 17.7858V25.8032C19.8333 25.9064 19.806 26.0078 19.754 26.0969C19.7021 26.1861 19.6274 26.2599 19.5376 26.3108C19.4478 26.3617 19.3461 26.3878 19.2429 26.3866C19.1397 26.3853 19.0387 26.3567 18.9502 26.3037L14 23.3333L9.04982 26.3037C8.96121 26.3568 8.86008 26.3854 8.75677 26.3866C8.65347 26.3878 8.5517 26.3615 8.46187 26.3105C8.37204 26.2595 8.29738 26.1855 8.24551 26.0962C8.19364 26.0068 8.16643 25.9053 8.16666 25.802V17.787C6.65716 16.5784 5.56031 14.9309 5.02769 13.072C4.49507 11.2131 4.55297 9.23463 5.1934 7.41006C5.83382 5.58549 7.02515 4.00488 8.60274 2.88667C10.1803 1.76845 12.0663 1.16785 14 1.16785C15.9337 1.16785 17.8197 1.76845 19.3972 2.88667C20.9748 4.00488 22.1662 5.58549 22.8066 7.41006C23.447 9.23463 23.5049 11.2131 22.9723 13.072C22.4397 14.9309 21.3428 16.5784 19.8333 17.787M14 17.5C15.8565 17.5 17.637 16.7625 18.9497 15.4498C20.2625 14.137 21 12.3565 21 10.5C21 8.6435 20.2625 6.86302 18.9497 5.55026C17.637 4.23751 15.8565 3.50001 14 3.50001C12.1435 3.50001 10.363 4.23751 9.05024 5.55026C7.73749 6.86302 6.99999 8.6435 6.99999 10.5C6.99999 12.3565 7.73749 14.137 9.05024 15.4498C10.363 16.7625 12.1435 17.5 14 17.5ZM14 15.1667C12.7623 15.1667 11.5753 14.675 10.7002 13.7998C9.82499 12.9247 9.33332 11.7377 9.33332 10.5C9.33332 9.26233 9.82499 8.07535 10.7002 7.20018C11.5753 6.32501 12.7623 5.83334 14 5.83334C15.2377 5.83334 16.4247 6.32501 17.2998 7.20018C18.175 8.07535 18.6667 9.26233 18.6667 10.5C18.6667 11.7377 18.175 12.9247 17.2998 13.7998C16.4247 14.675 15.2377 15.1667 14 15.1667Z" fill="white"/>
</svg>
