<svg width="28" height="28" viewBox="0 0 28 28" fill="none" xmlns="http://www.w3.org/2000/svg">
<path d="M13.0573 18.3832C13.0573 17.3565 12.789 16.4955 12.2523 15.7967C11.872 15.316 11.3563 14.9999 10.7042 14.8494C10.0625 14.7 9.45583 14.6895 8.90749 14.8167C8.72083 13.7084 9.02416 12.5347 9.79416 11.291C10.5642 10.0485 11.5617 9.11287 12.7785 8.48754L10.934 5.83337C10.0007 6.29537 9.11399 6.88104 8.29733 7.58921C7.46899 8.29737 6.73399 9.11171 6.08066 10.0322C5.42733 10.9527 4.93733 11.9922 4.62233 13.1705C4.30733 14.3489 4.21983 15.5505 4.37033 16.7872C4.56633 18.4205 5.09366 19.7272 5.95233 20.6955C6.80983 21.6767 7.87966 22.1667 9.15833 22.1667C10.2842 22.1667 11.2187 21.8284 11.9583 21.1424C12.691 20.4704 13.055 19.5499 13.055 18.3797L13.0573 18.3832ZM23.702 18.3832C23.702 17.3565 23.4337 16.4955 22.897 15.7967C22.5167 15.3067 21.9987 14.9894 21.3488 14.8435C20.6955 14.6989 20.097 14.6919 19.5522 14.8179C19.3655 13.7212 19.6572 12.5429 20.4295 11.2945C21.1995 10.0579 22.1947 9.12454 23.4115 8.49454L21.5717 5.83337C20.6383 6.29537 19.7575 6.88104 18.935 7.58921C18.0991 8.30787 17.3568 9.12862 16.7253 10.0322C16.0767 10.9539 15.5937 11.9922 15.2787 13.1705C14.9599 14.3482 14.8739 15.5767 15.0255 16.7872C15.2192 18.4205 15.7442 19.7272 16.6005 20.6955C17.4557 21.6685 18.522 22.1562 19.8007 22.1562C20.9288 22.1562 21.8633 21.8179 22.603 21.133C23.3345 20.461 23.702 19.5405 23.702 18.3704V18.3832Z" fill="#FBBF24"/>
</svg>
