<svg width="28" height="28" viewBox="0 0 28 28" fill="none" xmlns="http://www.w3.org/2000/svg">
<path fill-rule="evenodd" clip-rule="evenodd" d="M24.2083 19.4997C24.2082 19.5557 24.2027 19.6115 24.192 19.6665C24.2166 19.7932 24.2129 19.9237 24.1811 20.0487C24.1493 20.1738 24.0903 20.2903 24.0083 20.3898C23.9262 20.4894 23.8231 20.5696 23.7065 20.6247C23.5898 20.6797 23.4623 20.7083 23.3333 20.7083H6.99999C6.80848 20.7083 6.61884 20.7461 6.44191 20.8193C6.26498 20.8926 6.10421 21 5.96879 21.1355C5.83337 21.2709 5.72595 21.4317 5.65267 21.6086C5.57938 21.7855 5.54166 21.9752 5.54166 22.1667C5.54166 22.3582 5.57938 22.5478 5.65267 22.7247C5.72595 22.9017 5.83337 23.0624 5.96879 23.1979C6.10421 23.3333 6.26498 23.4407 6.44191 23.514C6.61884 23.5873 6.80848 23.625 6.99999 23.625H23.3333C23.5654 23.625 23.7879 23.7172 23.952 23.8813C24.1161 24.0454 24.2083 24.2679 24.2083 24.5C24.2083 24.7321 24.1161 24.9546 23.952 25.1187C23.7879 25.2828 23.5654 25.375 23.3333 25.375H6.99999C6.14909 25.375 5.33303 25.037 4.73136 24.4353C4.12968 23.8336 3.79166 23.0176 3.79166 22.1667V5.83333C3.79166 4.98243 4.12968 4.16638 4.73136 3.5647C5.33303 2.96302 6.14909 2.625 6.99999 2.625H22.6333C23.5037 2.625 24.2083 3.32967 24.2083 4.2V19.4997ZM10.5 7.29167C10.2679 7.29167 10.0454 7.38385 9.88127 7.54795C9.71718 7.71204 9.62499 7.9346 9.62499 8.16667C9.62499 8.39873 9.71718 8.62129 9.88127 8.78539C10.0454 8.94948 10.2679 9.04167 10.5 9.04167H17.5C17.7321 9.04167 17.9546 8.94948 18.1187 8.78539C18.2828 8.62129 18.375 8.39873 18.375 8.16667C18.375 7.9346 18.2828 7.71204 18.1187 7.54795C17.9546 7.38385 17.7321 7.29167 17.5 7.29167H10.5Z" fill="white"/>
</svg>
