<svg width="28" height="28" viewBox="0 0 28 28" fill="none" xmlns="http://www.w3.org/2000/svg">
<path d="M15.1666 3.5C10.7683 3.5 7.22164 6.94167 6.99998 11.27L4.75998 14.2217C4.47998 14.5833 4.75998 15.1667 5.24998 15.1667H6.99998V18.6667C6.99998 19.9617 8.03831 21 9.33331 21H10.5V24.5H18.6666V19.0283C21.4316 17.7217 23.3333 14.9333 23.3333 11.6667C23.3333 7.16333 19.6933 3.5 15.1666 3.5ZM19.8333 10.3017C19.8333 12.0983 18.2466 13.5333 15.8433 15.715L15.1666 16.3333L14.49 15.715C12.0866 13.5333 10.5 12.0983 10.5 10.3017C10.5 8.90167 11.62 7.74667 13.02 7.735H13.0666C13.8716 7.735 14.6416 8.09667 15.1666 8.70333C15.6916 8.09667 16.4616 7.735 17.2666 7.735C18.6666 7.72333 19.8333 8.855 19.8333 10.255V10.3017Z" fill="white"/>
</svg>
