<svg width="120" height="120" viewBox="0 0 120 120" fill="none" xmlns="http://www.w3.org/2000/svg">
<path d="M50 62.5C48.0109 62.5 46.1032 63.2902 44.6967 64.6967C43.2902 66.1032 42.5 68.0109 42.5 70C42.5 71.9891 43.2902 73.8968 44.6967 75.3033C46.1032 76.7098 48.0109 77.5 50 77.5C51.9891 77.5 53.8968 76.7098 55.3033 75.3033C56.7098 73.8968 57.5 71.9891 57.5 70C57.5 68.0109 56.7098 66.1032 55.3033 64.6967C53.8968 63.2902 51.9891 62.5 50 62.5ZM50 72.5C49.337 72.5 48.7011 72.2366 48.2322 71.7678C47.7634 71.2989 47.5 70.663 47.5 70C47.5 69.337 47.7634 68.7011 48.2322 68.2322C48.7011 67.7634 49.337 67.5 50 67.5C50.663 67.5 51.2989 67.7634 51.7678 68.2322C52.2366 68.7011 52.5 69.337 52.5 70C52.5 70.663 52.2366 71.2989 51.7678 71.7678C51.2989 72.2366 50.663 72.5 50 72.5ZM50 42.5C48.0109 42.5 46.1032 43.2902 44.6967 44.6967C43.2902 46.1032 42.5 48.0109 42.5 50C42.5 51.9891 43.2902 53.8968 44.6967 55.3033C46.1032 56.7098 48.0109 57.5 50 57.5C51.9891 57.5 53.8968 56.7098 55.3033 55.3033C56.7098 53.8968 57.5 51.9891 57.5 50C57.5 48.0109 56.7098 46.1032 55.3033 44.6967C53.8968 43.2902 51.9891 42.5 50 42.5ZM50 52.5C49.337 52.5 48.7011 52.2366 48.2322 51.7678C47.7634 51.2989 47.5 50.663 47.5 50C47.5 49.337 47.7634 48.7011 48.2322 48.2322C48.7011 47.7634 49.337 47.5 50 47.5C50.663 47.5 51.2989 47.7634 51.7678 48.2322C52.2366 48.7011 52.5 49.337 52.5 50C52.5 50.663 52.2366 51.2989 51.7678 51.7678C51.2989 52.2366 50.663 52.5 50 52.5ZM107.5 62.5C108.163 62.5 108.799 62.2366 109.268 61.7678C109.737 61.2989 110 60.663 110 60C110 59.337 109.737 58.7011 109.268 58.2322C108.799 57.7634 108.163 57.5 107.5 57.5H95V42.5H107.5C108.163 42.5 108.799 42.2366 109.268 41.7678C109.737 41.2989 110 40.663 110 40C110 39.337 109.737 38.7011 109.268 38.2322C108.799 37.7634 108.163 37.5 107.5 37.5H95C94.9973 34.1856 93.6795 31.0077 91.3359 28.6641C88.9923 26.3205 85.8144 25.0026 82.5 25V12.5C82.5 11.837 82.2366 11.2011 81.7678 10.7322C81.2989 10.2634 80.663 10 80 10C79.337 10 78.7011 10.2634 78.2322 10.7322C77.7634 11.2011 77.5 11.837 77.5 12.5V25H62.5V12.5C62.5 11.837 62.2366 11.2011 61.7678 10.7322C61.2989 10.2634 60.663 10 60 10C59.337 10 58.7011 10.2634 58.2322 10.7322C57.7634 11.2011 57.5 11.837 57.5 12.5V25H42.5V12.5C42.5 11.837 42.2366 11.2011 41.7678 10.7322C41.2989 10.2634 40.663 10 40 10C39.337 10 38.7011 10.2634 38.2322 10.7322C37.7634 11.2011 37.5 11.837 37.5 12.5V25C34.1856 25.0026 31.0077 26.3205 28.6641 28.6641C26.3205 31.0077 25.0026 34.1856 25 37.5H12.5C11.837 37.5 11.2011 37.7634 10.7322 38.2322C10.2634 38.7011 10 39.337 10 40C10 40.663 10.2634 41.2989 10.7322 41.7678C11.2011 42.2366 11.837 42.5 12.5 42.5H25V57.5H12.5C11.837 57.5 11.2011 57.7634 10.7322 58.2322C10.2634 58.7011 10 59.337 10 60C10 60.663 10.2634 61.2989 10.7322 61.7678C11.2011 62.2366 11.837 62.5 12.5 62.5H25V77.5H12.5C11.837 77.5 11.2011 77.7634 10.7322 78.2322C10.2634 78.7011 10 79.337 10 80C10 80.663 10.2634 81.2989 10.7322 81.7678C11.2011 82.2366 11.837 82.5 12.5 82.5H25C25.0026 85.8144 26.3205 88.9923 28.6641 91.3359C31.0077 93.6795 34.1856 94.9973 37.5 95V107.5C37.5 108.163 37.7634 108.799 38.2322 109.268C38.7011 109.737 39.337 110 40 110C40.663 110 41.2989 109.737 41.7678 109.268C42.2366 108.799 42.5 108.163 42.5 107.5V95H57.5V107.5C57.5 108.163 57.7634 108.799 58.2322 109.268C58.7011 109.737 59.337 110 60 110C60.663 110 61.2989 109.737 61.7678 109.268C62.2366 108.799 62.5 108.163 62.5 107.5V95H77.5V107.5C77.5 108.163 77.7634 108.799 78.2322 109.268C78.7011 109.737 79.337 110 80 110C80.663 110 81.2989 109.737 81.7678 109.268C82.2366 108.799 82.5 108.163 82.5 107.5V95C85.8144 94.9973 88.9923 93.6795 91.3359 91.3359C93.6795 88.9923 94.9973 85.8144 95 82.5H107.5C108.163 82.5 108.799 82.2366 109.268 81.7678C109.737 81.2989 110 80.663 110 80C110 79.337 109.737 78.7011 109.268 78.2322C108.799 77.7634 108.163 77.5 107.5 77.5H95V62.5H107.5ZM90 82.5C90 84.4891 89.2098 86.3968 87.8033 87.8033C86.3968 89.2098 84.4891 90 82.5 90H37.5C35.5109 90 33.6032 89.2098 32.1967 87.8033C30.7902 86.3968 30 84.4891 30 82.5V37.5C30 35.5109 30.7902 33.6032 32.1967 32.1967C33.6032 30.7902 35.5109 30 37.5 30H82.5C84.4891 30 86.3968 30.7902 87.8033 32.1967C89.2098 33.6032 90 35.5109 90 37.5V82.5ZM70 42.5C68.0109 42.5 66.1032 43.2902 64.6967 44.6967C63.2902 46.1032 62.5 48.0109 62.5 50C62.5 51.9891 63.2902 53.8968 64.6967 55.3033C66.1032 56.7098 68.0109 57.5 70 57.5C71.9891 57.5 73.8968 56.7098 75.3033 55.3033C76.7098 53.8968 77.5 51.9891 77.5 50C77.5 48.0109 76.7098 46.1032 75.3033 44.6967C73.8968 43.2902 71.9891 42.5 70 42.5ZM70 52.5C69.337 52.5 68.7011 52.2366 68.2322 51.7678C67.7634 51.2989 67.5 50.663 67.5 50C67.5 49.337 67.7634 48.7011 68.2322 48.2322C68.7011 47.7634 69.337 47.5 70 47.5C70.663 47.5 71.2989 47.7634 71.7678 48.2322C72.2366 48.7011 72.5 49.337 72.5 50C72.5 50.663 72.2366 51.2989 71.7678 51.7678C71.2989 52.2366 70.663 52.5 70 52.5ZM70 62.5C68.0109 62.5 66.1032 63.2902 64.6967 64.6967C63.2902 66.1032 62.5 68.0109 62.5 70C62.5 71.9891 63.2902 73.8968 64.6967 75.3033C66.1032 76.7098 68.0109 77.5 70 77.5C71.9891 77.5 73.8968 76.7098 75.3033 75.3033C76.7098 73.8968 77.5 71.9891 77.5 70C77.5 68.0109 76.7098 66.1032 75.3033 64.6967C73.8968 63.2902 71.9891 62.5 70 62.5ZM70 72.5C69.337 72.5 68.7011 72.2366 68.2322 71.7678C67.7634 71.2989 67.5 70.663 67.5 70C67.5 69.337 67.7634 68.7011 68.2322 68.2322C68.7011 67.7634 69.337 67.5 70 67.5C70.663 67.5 71.2989 67.7634 71.7678 68.2322C72.2366 68.7011 72.5 69.337 72.5 70C72.5 70.663 72.2366 71.2989 71.7678 71.7678C71.2989 72.2366 70.663 72.5 70 72.5Z" fill="#FBBF24"/>
</svg>
