<svg width="24" height="41" viewBox="0 0 24 41" fill="none" xmlns="http://www.w3.org/2000/svg">
<path d="M17.5266 22.0751C17.775 21.5319 18.4635 21.0287 19.0572 20.9613C19.6509 20.894 20.192 20.3508 20.2594 19.7571C20.331 19.1676 20.832 18.477 21.3731 18.2265C21.6457 18.0877 21.8675 17.8665 22.007 17.5943C22.1465 17.3222 22.1966 17.0129 22.15 16.7106C22.0279 16.1253 22.2931 15.3148 22.7311 14.9126C22.9482 14.6959 23.0911 14.416 23.1392 14.1129C23.1872 13.8099 23.1379 13.4995 22.9984 13.2262C22.8541 12.9324 22.779 12.6094 22.779 12.282C22.779 11.9546 22.8541 11.6316 22.9984 11.3377C23.1383 11.0646 23.1877 10.754 23.1397 10.4509C23.0916 10.1479 22.9485 9.86786 22.7311 9.65134C22.2931 9.245 22.03 8.43655 22.15 7.85336C22.1972 7.55045 22.1475 7.24038 22.0079 6.9674C21.8684 6.69443 21.6462 6.4725 21.3731 6.33329C21.0838 6.17896 20.8333 5.96104 20.6404 5.69593C20.4475 5.43082 20.3172 5.12542 20.2594 4.8027C20.2114 4.50093 20.0693 4.22203 19.8534 4.00578C19.6375 3.78953 19.3589 3.64697 19.0572 3.59843C18.7344 3.5417 18.4287 3.41208 18.1635 3.21946C17.8983 3.02683 17.6804 2.77626 17.5266 2.4868C17.3877 2.21375 17.1656 1.99194 16.8923 1.85342C16.6191 1.71491 16.3089 1.66687 16.0065 1.71624C15.6821 1.76172 15.3515 1.73264 15.04 1.63123C14.7284 1.52981 14.4441 1.35872 14.2086 1.13095C13.8022 0.688826 13.0443 0.570926 12.5243 0.863571C12.0043 1.15622 11.1516 1.15622 10.6337 0.863571C10.3612 0.721918 10.0507 0.67105 9.74728 0.718395C9.4439 0.765739 9.16359 0.908817 8.94728 1.12674C8.71194 1.35477 8.42762 1.52604 8.11602 1.62747C7.80443 1.7289 7.47378 1.75783 7.1493 1.71203C6.84735 1.66345 6.53777 1.71212 6.26529 1.85101C5.99281 1.9899 5.77154 2.21182 5.63344 2.4847C5.3829 3.02367 4.69445 3.52685 4.10074 3.59422C3.79851 3.64278 3.51933 3.78557 3.30307 4.00221C3.08681 4.21885 2.94451 4.49827 2.89648 4.80059C2.83936 5.12331 2.70935 5.42874 2.51635 5.69362C2.32335 5.9585 2.07244 6.17584 1.78274 6.32908C1.51056 6.46899 1.28951 6.69129 1.15114 6.96425C1.01277 7.23722 0.964133 7.54691 1.01218 7.84915C1.12797 8.43234 0.864804 9.2429 0.426889 9.64713C-0.0110254 10.0514 -0.133136 10.8093 0.159509 11.3335C0.452154 11.8514 0.452154 12.7041 0.159509 13.222C0.0198461 13.4956 -0.0295106 13.8064 0.0185305 14.1098C0.0665715 14.4131 0.209537 14.6935 0.426889 14.9105C0.866909 15.3105 1.12797 16.1211 1.01218 16.7085C0.964088 17.0102 1.01274 17.3193 1.15117 17.5916C1.28959 17.8639 1.51068 18.0854 1.78274 18.2244C2.32592 18.4749 2.82489 19.1655 2.89437 19.755C2.96595 20.3487 3.50492 20.8918 4.09864 20.9592C4.69235 21.0266 5.3808 21.5319 5.63134 22.073C5.77051 22.3448 5.99205 22.5657 6.26429 22.7041C6.53654 22.8425 6.84555 22.8913 7.1472 22.8435C7.73248 22.7277 8.54305 22.9888 8.94517 23.4288C9.16204 23.6457 9.442 23.7884 9.74494 23.8364C10.0479 23.8844 10.3582 23.8354 10.6316 23.6962C11.1495 23.4035 12.0022 23.4035 12.5222 23.6962C13.0422 23.9888 13.8001 23.8667 14.2065 23.4288C14.6128 22.9867 15.4192 22.7277 16.0044 22.8435C16.3068 22.8922 16.6168 22.8441 16.8901 22.7061C17.1635 22.5681 17.3863 22.3472 17.5266 22.0751ZM11.579 19.4349C9.6805 19.4349 7.85978 18.6808 6.51735 17.3383C5.17492 15.9959 4.42075 14.1752 4.42075 12.2767C4.42075 10.3782 5.17492 8.55752 6.51735 7.2151C7.85978 5.87267 9.6805 5.1185 11.579 5.1185C13.4775 5.1185 15.2982 5.87267 16.6406 7.2151C17.983 8.55752 18.7372 10.3782 18.7372 12.2767C18.7372 14.1752 17.983 15.9959 16.6406 17.3383C15.2982 18.6808 13.4775 19.4349 11.579 19.4349ZM3.10491 23.6667L0.487944 38.5074L7.07351 37.5305L12.9285 40.7012L15.5349 25.9194C13.4304 26.5348 11.2115 26.6516 9.05397 26.2606C6.89645 25.8696 4.85964 24.9815 3.10491 23.6667ZM19.9183 23.7678C19.2608 24.2456 18.5635 24.6662 17.834 25.0247L16.2592 33.943L23.3521 30.0944L19.9183 23.7678Z" fill="#FBBF24"/>
</svg>
