<svg width="360" height="242" viewBox="0 0 360 242" fill="none" xmlns="http://www.w3.org/2000/svg">
<g clip-path="url(#clip0_66_602)">
<path d="M296.046 96.7243L267.838 83.2761L265.148 88.9178L293.356 102.366L296.046 96.7243ZM285.025 105.318L268.1 97.2491L265.41 102.891L282.335 110.96L285.025 105.318ZM311.528 27.9418C319.009 31.5085 324.767 37.901 327.535 45.7131C330.303 53.5252 329.854 62.117 326.288 69.5983C324.524 73.7889 321.791 77.5008 318.312 80.4287C314.834 83.3567 310.71 85.4169 306.28 86.44C302.209 87.7186 299.973 88.4874 298.735 91.0826L293.094 88.393C295.568 83.2026 300.085 81.7899 304.462 80.4497C308.061 79.6876 311.419 78.0547 314.24 75.694C317.062 73.3333 319.261 70.3168 320.646 66.9087C323.499 60.9236 323.858 54.0502 321.644 47.8005C319.429 41.5509 314.823 36.4368 308.838 33.5835C302.853 30.7302 295.979 30.3713 289.73 32.5857C283.48 34.8002 278.366 39.4066 275.513 45.3917C273.739 48.6175 272.784 52.2293 272.731 55.9102C272.679 59.5911 273.53 63.2287 275.21 66.504C276.884 70.7638 278.67 75.0773 276.169 80.3241L270.527 77.6345C271.764 75.0393 270.982 72.8315 269.397 68.8217C267.403 64.7413 266.406 60.2457 266.488 55.7048C266.571 51.1639 267.73 46.7074 269.871 42.7021C271.637 38.9977 274.115 35.6774 277.165 32.9309C280.214 30.1843 283.774 28.0652 287.642 26.6946C291.511 25.324 295.611 24.7287 299.709 24.9427C303.807 25.1567 307.823 26.1758 311.528 27.9418Z" fill="#FBBF24"/>
</g>
<g clip-path="url(#clip1_66_602)">
<path d="M167.933 91.2116L139.92 105.062L142.69 110.665L170.703 96.8142L167.933 91.2116ZM167.871 105.187L151.063 113.497L153.833 119.1L170.641 110.79L167.871 105.187ZM123.456 36.5085C130.885 32.8351 139.469 32.2635 147.32 34.9195C155.171 37.5754 161.646 43.2414 165.319 50.6708C167.521 54.6484 168.748 59.092 168.898 63.6361C169.048 68.1803 168.116 72.695 166.181 76.809C164.667 80.7993 163.889 83.0319 165.163 85.6091L159.561 88.3792C157.012 83.2248 158.695 78.8021 160.349 74.5329C161.976 71.2334 162.769 67.5853 162.659 63.9082C162.548 60.231 161.538 56.637 159.716 53.441C156.778 47.4974 151.598 42.9646 145.318 40.8399C139.037 38.7151 132.169 39.1724 126.226 42.1111C120.282 45.0498 115.749 50.2293 113.625 56.51C111.5 62.7907 111.957 69.6583 114.896 75.6019C116.334 78.9907 118.581 81.9748 121.441 84.2926C124.301 86.6104 127.686 88.1911 131.3 88.896C135.682 90.2152 140.177 91.4791 142.753 96.6895L137.15 99.4596C135.876 96.8825 133.657 96.1319 129.526 94.8975C125.086 93.9412 120.937 91.9445 117.419 89.0715C113.902 86.1985 111.117 82.5315 109.293 78.372C107.474 74.6933 106.398 70.6924 106.125 66.5976C105.852 62.5029 106.389 58.3945 107.704 54.5071C109.019 50.6198 111.087 47.0295 113.79 43.9412C116.492 40.853 119.777 38.3274 123.456 36.5085Z" fill="#FBBF24"/>
</g>
<path d="M87.2773 172.511L80.6987 203.061L86.8086 204.376L93.3872 173.827L87.2773 172.511ZM98.1814 181.252L94.2343 199.582L100.344 200.898L104.291 182.568L98.1814 181.252ZM16.7786 173.313C18.5233 165.211 23.4153 158.133 30.3782 153.638C37.3411 149.142 45.8046 147.597 53.9069 149.342C58.3913 150.091 62.6336 151.895 66.285 154.604C69.9363 157.313 72.8922 160.85 74.9096 164.925C77.0929 168.592 78.3567 170.59 81.1673 171.195L79.8516 177.305C74.2305 176.095 71.8141 172.026 69.5001 168.075C67.9284 164.749 65.5652 161.859 62.6173 159.658C59.6694 157.458 56.2269 156.013 52.5912 155.452C46.1093 154.056 39.3385 155.292 33.7682 158.889C28.1979 162.485 24.2843 168.147 22.8885 174.629C21.4928 181.111 22.729 187.881 26.3254 193.452C29.9218 199.022 35.5836 202.936 42.0655 204.331C45.6134 205.313 49.3481 205.409 52.9419 204.611C56.5357 203.814 59.8788 202.146 62.6781 199.756C66.437 197.145 70.2222 194.411 75.9045 195.635L74.5887 201.745C71.7782 201.14 69.8104 202.41 66.2743 204.877C62.7639 207.759 58.6195 209.766 54.1821 210.733C49.7447 211.701 45.141 211.6 40.7498 210.441C36.7379 209.577 32.9355 207.932 29.5596 205.598C26.1838 203.265 23.3006 200.289 21.0747 196.842C18.8487 193.394 17.3237 189.542 16.5866 185.505C15.8494 181.468 15.9147 177.325 16.7786 173.313Z" fill="#FBBF24"/>
<defs>
<clipPath id="clip0_66_602">
<rect width="100" height="100" fill="white" transform="matrix(-0.902667 -0.43034 -0.43034 0.902667 359.351 43.8171)"/>
</clipPath>
<clipPath id="clip1_66_602">
<rect width="100" height="100" fill="white" transform="matrix(-0.896414 0.443219 0.443219 0.896414 165.506 8.745)"/>
</clipPath>
</defs>
</svg>
