<svg width="40" height="40" viewBox="0 0 40 40" fill="none" xmlns="http://www.w3.org/2000/svg">
<mask id="mask0_60_525" style="mask-type:luminance" maskUnits="userSpaceOnUse" x="0" y="0" width="40" height="40">
<path d="M0 0H40V40H0V0Z" fill="white"/>
</mask>
<g mask="url(#mask0_60_525)">
<path fill-rule="evenodd" clip-rule="evenodd" d="M40 0H0V40H40V0ZM10.8333 5C10.6123 5 10.4004 5.0878 10.2441 5.24408C10.0878 5.40036 10 5.61232 10 5.83333V6.66667H5.83333C5.61232 6.66667 5.40036 6.75446 5.24408 6.91074C5.0878 7.06702 5 7.27899 5 7.5V12.5C5 13.6051 5.43899 14.6649 6.22039 15.4463C7.00179 16.2277 8.0616 16.6667 9.16667 16.6667H10.5692C11.1648 18.3476 12.1985 19.839 13.5635 20.9867C14.9284 22.1344 16.5751 22.8967 18.3333 23.195V28.3333H13.3333C13.1123 28.3333 12.9004 28.4211 12.7441 28.5774C12.5878 28.7337 12.5 28.9457 12.5 29.1667V34.1667C12.5 34.3877 12.5878 34.5996 12.7441 34.7559C12.9004 34.9122 13.1123 35 13.3333 35H26.6667C26.8877 35 27.0996 34.9122 27.2559 34.7559C27.4122 34.5996 27.5 34.3877 27.5 34.1667V29.1667C27.5 28.9457 27.4122 28.7337 27.2559 28.5774C27.0996 28.4211 26.8877 28.3333 26.6667 28.3333H21.6667V23.195C23.4249 22.8967 25.0716 22.1344 26.4365 20.9867C27.8015 19.839 28.8352 18.3476 29.4308 16.6667H30.8333C31.9384 16.6667 32.9982 16.2277 33.7796 15.4463C34.561 14.6649 35 13.6051 35 12.5V7.5C35 7.27899 34.9122 7.06702 34.7559 6.91074C34.5996 6.75446 34.3877 6.66667 34.1667 6.66667H30V5.83333C30 5.61232 29.9122 5.40036 29.7559 5.24408C29.5996 5.0878 29.3877 5 29.1667 5H10.8333ZM30 8.33333V15H30.8333C31.4964 15 32.1323 14.7366 32.6011 14.2678C33.0699 13.7989 33.3333 13.163 33.3333 12.5V8.33333H30ZM6.66667 8.33333H10V15H9.16667C8.50363 15 7.86774 14.7366 7.3989 14.2678C6.93006 13.7989 6.66667 13.163 6.66667 12.5V8.33333Z" fill="#FBBF24"/>
</g>
</svg>
