<svg width="55" height="40" viewBox="0 0 55 40" fill="none" xmlns="http://www.w3.org/2000/svg">
<path d="M0 0H55V40H0V0ZM49.5 34.6667V5.33333H5.5V34.6667H49.5ZM41.25 8C41.25 9.41449 41.8295 10.771 42.8609 11.7712C43.8924 12.7714 45.2913 13.3333 46.75 13.3333V26.6667C45.2913 26.6667 43.8924 27.2286 42.8609 28.2288C41.8295 29.229 41.25 30.5855 41.25 32H13.75C13.75 30.5855 13.1705 29.229 12.1391 28.2288C11.1076 27.2286 9.70869 26.6667 8.25 26.6667V13.3333C9.70869 13.3333 11.1076 12.7714 12.1391 11.7712C13.1705 10.771 13.75 9.41449 13.75 8H41.25ZM41.25 21.3333V18.6667C41.25 15.7333 39.4075 13.3333 37.125 13.3333C34.8425 13.3333 33 15.7333 33 18.6667V21.3333C33 24.2667 34.8425 26.6667 37.125 26.6667C39.4075 26.6667 41.25 24.2667 41.25 21.3333ZM37.125 16C37.4897 16 37.8394 16.1405 38.0973 16.3905C38.3551 16.6406 38.5 16.9797 38.5 17.3333V22.6667C38.5 23.0203 38.3551 23.3594 38.0973 23.6095C37.8394 23.8595 37.4897 24 37.125 24C36.7603 24 36.4106 23.8595 36.1527 23.6095C35.8949 23.3594 35.75 23.0203 35.75 22.6667V17.3333C35.75 16.9797 35.8949 16.6406 36.1527 16.3905C36.4106 16.1405 36.7603 16 37.125 16ZM30.25 21.3333V18.6667C30.25 15.7333 28.4075 13.3333 26.125 13.3333C23.8425 13.3333 22 15.7333 22 18.6667V21.3333C22 24.2667 23.8425 26.6667 26.125 26.6667C28.4075 26.6667 30.25 24.2667 30.25 21.3333ZM26.125 16C26.4897 16 26.8394 16.1405 27.0973 16.3905C27.3551 16.6406 27.5 16.9797 27.5 17.3333V22.6667C27.5 23.0203 27.3551 23.3594 27.0973 23.6095C26.8394 23.8595 26.4897 24 26.125 24C25.7603 24 25.4106 23.8595 25.1527 23.6095C24.8949 23.3594 24.75 23.0203 24.75 22.6667V17.3333C24.75 16.9797 24.8949 16.6406 25.1527 16.3905C25.4106 16.1405 25.7603 16 26.125 16ZM16.5 26.6667H19.25V13.3333H16.5L13.75 14.6667V17.3333L16.5 16V26.6667Z" fill="#FBBF24"/>
</svg>
