<svg width="127" height="121" viewBox="0 0 127 121" fill="none" xmlns="http://www.w3.org/2000/svg">
<path d="M107.156 20.8359H19.8438C18.0017 20.8359 16.2352 21.5677 14.9327 22.8702C13.6302 24.1727 12.8984 25.9392 12.8984 27.7812V99.2188C12.8984 101.061 13.6302 102.827 14.9327 104.13C16.2352 105.432 18.0017 106.164 19.8438 106.164H26.4864C27.0497 106.164 27.6014 106.004 28.0773 105.703C28.5533 105.402 28.934 104.971 29.1753 104.462C31.1853 100.217 34.3593 96.6304 38.3279 94.1185C42.2966 91.6066 46.8969 90.2731 51.5938 90.2731C56.2906 90.2731 60.8909 91.6066 64.8596 94.1185C68.8282 96.6304 72.0022 100.217 74.0122 104.462C74.2535 104.971 74.6342 105.402 75.1102 105.703C75.5861 106.004 76.1378 106.164 76.7011 106.164H107.156C108.998 106.164 110.765 105.432 112.067 104.13C113.37 102.827 114.102 101.061 114.102 99.2188V27.7812C114.102 25.9392 113.37 24.1727 112.067 22.8702C110.765 21.5677 108.998 20.8359 107.156 20.8359ZM38.6953 71.4375C38.6953 68.8864 39.4518 66.3927 40.8691 64.2715C42.2864 62.1504 44.3009 60.4972 46.6577 59.5209C49.0146 58.5446 51.6081 58.2892 54.1101 58.7869C56.6122 59.2846 58.9104 60.513 60.7143 62.3169C62.5182 64.1208 63.7467 66.4191 64.2443 68.9211C64.742 71.4232 64.4866 74.0166 63.5104 76.3735C62.5341 78.7304 60.8809 80.7449 58.7597 82.1622C56.6386 83.5795 54.1448 84.3359 51.5938 84.3359C48.1729 84.3359 44.8921 82.977 42.4732 80.5581C40.0543 78.1391 38.6953 74.8584 38.6953 71.4375ZM108.148 99.2188C108.148 99.4819 108.044 99.7343 107.858 99.9203C107.672 100.106 107.419 100.211 107.156 100.211H78.5168C75.046 93.9812 69.5289 89.1424 62.8997 86.5138C66.0662 84.1405 68.4056 80.831 69.5864 77.0542C70.7673 73.2773 70.7296 69.2247 69.4789 65.4704C68.2282 61.7161 65.8277 58.4506 62.6177 56.1365C59.4077 53.8225 55.5509 52.5773 51.5938 52.5773C47.6366 52.5773 43.7798 53.8225 40.5698 56.1365C37.3598 58.4506 34.9593 61.7161 33.7086 65.4704C32.4579 69.2247 32.4202 73.2773 33.6011 77.0542C34.7819 80.831 37.1213 84.1405 40.2878 86.5138C33.6586 89.1424 28.1415 93.9812 24.6707 100.211H19.8438C19.5806 100.211 19.3282 100.106 19.1422 99.9203C18.9561 99.7343 18.8516 99.4819 18.8516 99.2188V27.7812C18.8516 27.5181 18.9561 27.2657 19.1422 27.0797C19.3282 26.8936 19.5806 26.7891 19.8438 26.7891H107.156C107.419 26.7891 107.672 26.8936 107.858 27.0797C108.044 27.2657 108.148 27.5181 108.148 27.7812V99.2188ZM98.2266 39.6875V87.3125C98.2266 88.1019 97.913 88.859 97.3547 89.4172C96.7965 89.9755 96.0394 90.2891 95.25 90.2891H87.3125C86.5231 90.2891 85.766 89.9755 85.2078 89.4172C84.6495 88.859 84.3359 88.1019 84.3359 87.3125C84.3359 86.5231 84.6495 85.766 85.2078 85.2078C85.766 84.6495 86.5231 84.3359 87.3125 84.3359H92.2734V42.6641H34.7266V47.625C34.7266 48.4144 34.413 49.1715 33.8547 49.7297C33.2965 50.288 32.5394 50.6016 31.75 50.6016C30.9606 50.6016 30.2035 50.288 29.6453 49.7297C29.087 49.1715 28.7734 48.4144 28.7734 47.625V39.6875C28.7734 38.8981 29.087 38.141 29.6453 37.5828C30.2035 37.0245 30.9606 36.7109 31.75 36.7109H95.25C96.0394 36.7109 96.7965 37.0245 97.3547 37.5828C97.913 38.141 98.2266 38.8981 98.2266 39.6875Z" fill="#FBBF24"/>
</svg>
