<svg width="40" height="40" viewBox="0 0 40 40" fill="none" xmlns="http://www.w3.org/2000/svg">
<path d="M20 30C21.3807 30 22.5 28.8807 22.5 27.5C22.5 26.1193 21.3807 25 20 25C18.6193 25 17.5 26.1193 17.5 27.5C17.5 28.8807 18.6193 30 20 30Z" fill="#FBBF24"/>
<path d="M7.79538 2.5C7.09889 2.49986 6.41613 2.6937 5.82361 3.05978C5.23109 3.42586 4.75223 3.94973 4.44069 4.57266L2.01882 9.41641C1.78216 9.89272 1.64895 10.4137 1.62794 10.9452C1.60694 11.4766 1.69861 12.0065 1.89694 12.5H23.6313C23.6842 12.5001 23.7363 12.4867 23.7826 12.4611C23.8289 12.4356 23.868 12.3987 23.8962 12.3539L29.7946 2.97891C29.8243 2.93171 29.8408 2.87743 29.8425 2.8217C29.8441 2.76597 29.8308 2.71081 29.8039 2.66195C29.7771 2.61309 29.7376 2.57231 29.6897 2.54383C29.6418 2.51535 29.5871 2.50022 29.5313 2.5H7.79538Z" fill="#FBBF24"/>
<path d="M37.9818 9.41875L35.5599 4.575C35.3104 4.07185 34.9504 3.63161 34.5068 3.28717C34.0632 2.94273 33.5475 2.70302 32.9982 2.58594L26.7576 12.5L23.281 18.0531C21.1558 17.3149 18.8437 17.3149 16.7185 18.0531L14.8966 15.1469C14.8686 15.102 14.8295 15.0649 14.7832 15.0392C14.7369 15.0135 14.6848 15 14.6318 15H3.99509C3.93903 15.0001 3.88404 15.0153 3.83586 15.0439C3.78769 15.0726 3.7481 15.1137 3.72126 15.1629C3.69442 15.2121 3.68131 15.2676 3.6833 15.3236C3.68529 15.3796 3.70232 15.4341 3.73259 15.4812L10.1935 25.5383C9.90244 26.9894 9.93709 28.487 10.295 29.9231C10.6528 31.3592 11.325 32.6979 12.263 33.8427C13.201 34.9875 14.3814 35.9099 15.719 36.5432C17.0567 37.1765 18.5182 37.505 19.9982 37.505C21.4782 37.505 22.9398 37.1765 24.2774 36.5432C25.6151 35.9099 26.7955 34.9875 27.7334 33.8427C28.6714 32.6979 29.3436 31.3592 29.7015 29.9231C30.0593 28.487 30.094 26.9894 29.8029 25.5383L37.7826 13.125C38.1329 12.577 38.3354 11.9476 38.3703 11.2981C38.4052 10.6486 38.2714 10.0012 37.9818 9.41875ZM20.3256 32.4898C19.311 32.5561 18.3004 32.3116 17.4284 31.7888C16.5564 31.2659 15.8645 30.4897 15.445 29.5636C15.0254 28.6375 14.8982 27.6055 15.0803 26.6052C15.2623 25.6049 15.745 24.6839 16.4639 23.965C17.1829 23.246 18.1039 22.7634 19.1042 22.5813C20.1044 22.3992 21.1365 22.5265 22.0626 22.946C22.9887 23.3655 23.7649 24.0574 24.2878 24.9294C24.8106 25.8014 25.0551 26.812 24.9888 27.8266C24.9084 29.0368 24.3914 30.1766 23.5338 31.0343C22.6763 31.892 21.5365 32.4092 20.3263 32.4898H20.3256Z" fill="#FBBF24"/>
</svg>
