<svg width="40" height="40" viewBox="0 0 40 40" fill="none" xmlns="http://www.w3.org/2000/svg">
<g clip-path="url(#clip0_56_453)">
<mask id="mask0_56_453" style="mask-type:luminance" maskUnits="userSpaceOnUse" x="0" y="0" width="40" height="40">
<path d="M0 0H40V40H0V0Z" fill="white"/>
</mask>
<g mask="url(#mask0_56_453)">
<path fill-rule="evenodd" clip-rule="evenodd" d="M40 0H0V40H40V0ZM33.3325 16.6667C33.3325 21.9383 30.2733 26.495 25.8333 28.6592V35.8342C25.8332 35.985 25.7922 36.1329 25.7146 36.2622C25.637 36.3915 25.5258 36.4973 25.3928 36.5684C25.2598 36.6395 25.11 36.6732 24.9594 36.6658C24.8087 36.6584 24.6629 36.6104 24.5375 36.5267L20 33.5017L15.4625 36.5267C15.337 36.6104 15.1911 36.6585 15.0404 36.6658C14.8897 36.6731 14.7399 36.6394 14.6069 36.5682C14.4738 36.4971 14.3626 36.3911 14.2851 36.2617C14.2076 36.1322 14.1666 35.9842 14.1667 35.8333V28.66C9.725 26.4967 6.66583 21.9392 6.66583 16.6667C6.66583 9.3025 12.635 3.33333 19.9992 3.33333C27.3633 3.33333 33.3325 9.3025 33.3325 16.6667ZM31.6658 16.6667C31.6658 23.11 26.4425 28.3333 19.9992 28.3333C13.5558 28.3333 8.3325 23.11 8.3325 16.6667C8.3325 10.2233 13.5558 5 19.9992 5C26.4425 5 31.6658 10.2233 31.6658 16.6667ZM20 7.5C14.9375 7.5 10.8333 11.6042 10.8333 16.6667C10.8333 21.7292 14.9375 25.8333 20 25.8333C25.0625 25.8333 29.1667 21.7292 29.1667 16.6667C29.1667 11.6042 25.0625 7.5 20 7.5Z" fill="#FBBF24"/>
</g>
</g>
<defs>
<clipPath id="clip0_56_453">
<rect width="40" height="40" rx="10" fill="white"/>
</clipPath>
</defs>
</svg>
