<svg width="126" height="34" viewBox="0 0 126 34" fill="none" xmlns="http://www.w3.org/2000/svg">
<path d="M112.854 0.00245006C108.539 -0.0331285 104.229 0.318848 99.9757 1.05424C96.8257 1.63856 93.8595 2.23882 91.0875 4.08211C86.8508 6.87625 85.4385 11.9971 85.386 16.7992C85.323 22.005 86.8718 27.742 91.7385 30.2918C95.5973 32.3316 99.8078 33.224 104.102 33.6065C111.437 34.2333 118.76 34.1377 126 33.1284V27.9226C120.54 28.9319 114.938 29.5693 109.284 28.73C100.611 27.4551 99.1515 20.9054 99.1515 16.5867C99.1515 14.1909 99.4665 11.3437 101.682 8.48049C105.231 3.88556 115.684 3.40216 125.569 5.34637V0.799256C121.348 0.305228 117.103 0.0392501 112.854 0.00245006ZM45.591 1.04892V24.6663C45.7485 28.6185 47.1397 32.73 55.2195 33.0647C64.743 33.4631 73.8045 33.3037 83.223 32.9372V28.1776C78.5505 28.252 64.9162 28.1829 64.0605 28.1776C60.3645 27.9545 58.9523 26.8177 58.821 23.7314C58.7557 21.864 58.7207 19.9957 58.716 18.1272H80.6453V13.6969H58.7213V5.58542H82.7768V1.04892H45.591ZM0 1.04892V32.9159H6.0165V10.3185L23.7772 30.313C25.9297 32.4591 27.783 32.8522 29.6678 32.9159H40.2465V1.04892H34.209V24.406L16.4115 4.44864C15.1935 3.2428 12.4583 1.04892 10.143 1.04892H0Z" fill="#FBBF24"/>
</svg>
